{"title":"GMO OMG 2013 LIMITED [DOCU] 480p BRRip XviD titler","uid":10678576,"size":1212791307,"categoryP":"video","categoryS":"movies","magnet":"?xt=urn:btih:daed91be7df39f0ba97e1c7ad6dde330bb6ff638&amp;dn=GMO+OMG+2013+LIMITED+%5BDOCU%5D+480p+BRRip+XviD+titler&amp;tr=udp%3A%2F%2Ftracker.openbittorrent.com%3A80&amp;tr=udp%3A%2F%2Fopen.demonii.com%3A1337&amp;tr=udp%3A%2F%2Ftracker.coppersurfer.tk%3A6969&amp;tr=udp%3A%2F%2Fexodus.desync.com%3A6969","seeders":1,"leechers":0,"uploader":"movieZ.freak","files":4,"time":1406998189,"description":"SOURCE: GMO OMG 2013 LIMITED 720p BluRay x264 - IGUANA\n\n\n\n\n &lt;a href=&quot;\nhttp://www.imdb.com/title/tt2461034/&quot; rel=&quot;nofollow&quot; target=&quot;_NEW&quot;&gt;\nhttp://www.imdb.com/title/tt2461034/&lt;/a&gt;\n\n\n\n &lt;a href=&quot;\nhttp://www.rottentomatoes.com/m/gmo_omg/&quot; rel=&quot;nofollow&quot; target=&quot;_NEW&quot;&gt;\nhttp://www.rottentomatoes.com/m/gmo_omg/&lt;/a&gt;\n\n\n\n\n\n- SAMPLE: Yes\n\n\n- SUBTITLE: English\n\n\n- LANGUAGE / AUDIO: English\n\n\n\n\n\nSCREENSHOTS:\n-------------------    &lt;a href=&quot;\nhttp://someimage.com/DkIU&quot; rel=&quot;nofollow&quot; target=&quot;_NEW&quot;&gt;\nhttp://someimage.com/DkIU&lt;/a&gt;\n\n\n\n\n\nDIRECTOR: Jeremy Seifert\n\n\n\nCAST: Dennis Kucinich\n\n\n\nPLOT:\n-----------\nWho controls the future of your food? GMO OMG explores the systematic corporate takeover and potential loss of humanity's most precious and ancient inheritance: seeds. Director Jeremy Seifert investigates how loss of seed diversity and corresponding laboratory assisted genetic alteration of food affects his young children, the health of our planet, and freedom of choice everywhere. GMO OMG follows one family's struggle to live and eat without participating in an unhealthy, unjust, and destructive food system. In GMO OMG, the encroaching darkness of unknown health and environmental risks, chemical toxins, and food monopoly meets with the light of a growing global movement to take back what we have lost. Has the global food system been irrevocably hijacked? Is there still time to reclaim its purity, protect biodiversity and save ourselves?\n\n\n\n************************************\n\n- Duration: 1h 24mn\n\n- Bit rate: 1724 Kbps\n\n- Res: 854 x 480\n\n- AR: 16:9\n\n- FPS: 23.976 fps\n\n- Audio: MP3, 2 channels, 128Kbps\n\n************************************\n\n\nGeneral\n--------------\nFormat : AVI\nFormat/Info : Audio Video Interleave\nFile size : 1.10 GiB\nDuration : 1h 24mn\nOverall bit rate : 1862 Kbps\nWriting library : VirtualDub build 35491\n\n\nVideo\n------------\nFormat : MPEG-4 Visual\nFormat profile : Advanced Simple@L5\nFormat settings, BVOP : 2\nFormat settings, QPel : No\nFormat settings, GMC : No warppoints\nFormat settings, Matrix : Default (H.263)\nCodec ID : XVID\nCodec ID/Hint : XviD\nDuration : 1h 24mn\nBit rate : 1724 Kbps\nWidth : 854 pixels\nHeight : 480 pixels\nDisplay aspect ratio : 16:9\nFrame rate : 23.976 fps\nColor space : YUV\nChroma subsampling : 4:2:0\nBit depth : 8 bits\nScan type : Progressive\nCompression mode : Lossy\nBits/(Pixel*Frame) : 0.175\nStream size : 1.02 GiB (93%)\nWriting library : XviD 65\n\n\nAudio\n-----------\nFormat : MPEG Audio\nFormat version : Version 1\nFormat profile : Layer 3\nMode : Joint stereo\nMode extension : MS Stereo\nCodec ID : 55\nCodec ID/Hint : MP3\nDuration : 1h 24mn\nBit rate mode : Constant\nBit rate : 128 Kbps\nChannel(s) : 2 channels\nSampling rate : 48.0 KHz\nCompression mode : Lossy\nStream size : 77.5 MiB (7%)\nAlignment : Split accross interleaves\nInterleave, duration : 42 ms (1.00 video frame)\nInterleave, preload duration : 500 ms\nWriting library : LAME3.99r\n","torrent":{"xt":"urn:btih:daed91be7df39f0ba97e1c7ad6dde330bb6ff638","amp;dn":"GMO+OMG+2013+LIMITED+%5BDOCU%5D+480p+BRRip+XviD+titler","amp;tr":["udp%3A%2F%2Ftracker.openbittorrent.com%3A80","udp%3A%2F%2Fopen.demonii.com%3A1337","udp%3A%2F%2Ftracker.coppersurfer.tk%3A6969","udp%3A%2F%2Fexodus.desync.com%3A6969"],"infoHash":"daed91be7df39f0ba97e1c7ad6dde330bb6ff638","infoHashBuffer":{"type":"Buffer","data":[218,237,145,190,125,243,159,11,169,126,28,122,214,221,227,48,187,111,246,56]},"announce":[],"urlList":[]}}